<svg width="190" height="190" viewBox="0 0 190 190" fill="none" xmlns="http://www.w3.org/2000/svg">
<path d="M94.92 189.84C42.58 189.84 0 147.26 0 94.92C0 42.58 42.58 0 94.92 0C147.26 0 189.84 42.58 189.84 94.92C189.83 147.26 147.25 189.84 94.92 189.84ZM94.92 3.19C44.34 3.19 3.19 44.34 3.19 94.92C3.19 145.5 44.34 186.65 94.92 186.65C145.5 186.65 186.65 145.5 186.65 94.92C186.65 44.34 145.5 3.19 94.92 3.19Z" fill="#9333ea"/>
<path d="M94.9201 179.47C48.3001 179.47 10.3701 141.54 10.3701 94.92C10.3701 48.3 48.3001 10.37 94.9201 10.37C141.54 10.37 179.47 48.3 179.47 94.92C179.46 141.54 141.53 179.47 94.9201 179.47ZM94.9201 13.56C50.0601 13.56 13.5601 50.06 13.5601 94.92C13.5601 139.78 50.0601 176.28 94.9201 176.28C139.78 176.28 176.28 139.78 176.28 94.92C176.28 50.06 139.78 13.56 94.9201 13.56Z" fill="#9333ea"/>
<path d="M94.9202 169.1C54.0202 169.1 20.7402 135.82 20.7402 94.92C20.7402 54.02 54.0202 20.74 94.9202 20.74C135.82 20.74 169.1 54.02 169.1 94.92C169.09 135.82 135.82 169.1 94.9202 169.1ZM94.9202 23.93C55.7702 23.93 23.9302 55.78 23.9302 94.92C23.9302 134.07 55.7802 165.91 94.9202 165.91C134.06 165.91 165.91 134.06 165.91 94.92C165.91 55.78 134.06 23.93 94.9202 23.93Z" fill="#c084fc"/>
<path d="M94.9199 158.73C59.7399 158.73 31.1099 130.11 31.1099 94.92C31.1099 59.74 59.7299 31.11 94.9199 31.11C130.1 31.11 158.73 59.73 158.73 94.92C158.72 130.11 130.1 158.73 94.9199 158.73ZM94.9199 34.3C61.4899 34.3 34.2999 61.5 34.2999 94.92C34.2999 128.35 61.4999 155.54 94.9199 155.54C128.34 155.54 155.54 128.34 155.54 94.92C155.54 61.5 128.34 34.3 94.9199 34.3Z" fill="#c084fc"/>
<path d="M94.92 148.36C65.45 148.36 41.48 124.39 41.48 94.92C41.48 65.45 65.45 41.48 94.92 41.48C124.39 41.48 148.36 65.45 148.36 94.92C148.35 124.39 124.38 148.36 94.92 148.36ZM94.92 44.67C67.21 44.67 44.67 67.21 44.67 94.92C44.67 122.63 67.21 145.18 94.92 145.18C122.63 145.18 145.17 122.64 145.17 94.92C145.17 67.21 122.63 44.67 94.92 44.67Z" fill="#e9d5ff"/>
<path d="M94.92 137.99C71.17 137.99 51.8501 118.67 51.8501 94.92C51.8501 71.17 71.17 51.85 94.92 51.85C118.67 51.85 137.99 71.17 137.99 94.92C137.99 118.67 118.66 137.99 94.92 137.99ZM94.92 55.04C72.93 55.04 55.0301 72.93 55.0301 94.93C55.0301 116.92 72.92 134.82 94.92 134.82C116.92 134.82 134.81 116.93 134.81 94.93C134.8 72.93 116.91 55.04 94.92 55.04Z" fill="#e9d5ff"/>
</svg>
