<svg width="156" height="152" viewBox="0 0 156 152" fill="none" xmlns="http://www.w3.org/2000/svg">
<path d="M1.69 3.37999C2.62336 3.37999 3.38 2.62335 3.38 1.68999C3.38 0.756626 2.62336 0 1.69 0C0.756637 0 0 0.756626 0 1.68999C0 2.62335 0.756637 3.37999 1.69 3.37999Z" fill="#c084fc"/>
<path d="M16.8902 3.37999C17.8236 3.37999 18.5802 2.62335 18.5802 1.68999C18.5802 0.756626 17.8236 0 16.8902 0C15.9568 0 15.2002 0.756626 15.2002 1.68999C15.2002 2.62335 15.9568 3.37999 16.8902 3.37999Z" fill="#c084fc"/>
<path d="M32.0899 3.37999C33.0233 3.37999 33.7799 2.62335 33.7799 1.68999C33.7799 0.756626 33.0233 0 32.0899 0C31.1565 0 30.3999 0.756626 30.3999 1.68999C30.3999 2.62335 31.1565 3.37999 32.0899 3.37999Z" fill="#c084fc"/>
<path d="M48.9801 1.68999C48.9801 2.61999 48.2201 3.37999 47.2901 3.37999C46.3601 3.37999 45.6001 2.61999 45.6001 1.68999C45.6001 0.759987 46.3601 0 47.2901 0C48.2201 0 48.9801 0.759987 48.9801 1.68999Z" fill="#c084fc"/>
<path d="M64.1798 1.68999C64.1798 2.61999 63.4198 3.37999 62.4898 3.37999C61.5598 3.37999 60.7998 2.61999 60.7998 1.68999C60.7998 0.759987 61.5598 0 62.4898 0C63.4198 0 64.1798 0.759987 64.1798 1.68999Z" fill="#c084fc"/>
<path d="M77.69 3.37999C78.6234 3.37999 79.38 2.62335 79.38 1.68999C79.38 0.756626 78.6234 0 77.69 0C76.7566 0 76 0.756626 76 1.68999C76 2.62335 76.7566 3.37999 77.69 3.37999Z" fill="#c084fc"/>
<path d="M92.8902 3.37999C93.8236 3.37999 94.5802 2.62335 94.5802 1.68999C94.5802 0.756626 93.8236 0 92.8902 0C91.9568 0 91.2002 0.756626 91.2002 1.68999C91.2002 2.62335 91.9568 3.37999 92.8902 3.37999Z" fill="#c084fc"/>
<path d="M108.09 3.37999C109.023 3.37999 109.78 2.62335 109.78 1.68999C109.78 0.756626 109.023 0 108.09 0C107.157 0 106.4 0.756626 106.4 1.68999C106.4 2.62335 107.157 3.37999 108.09 3.37999Z" fill="#c084fc"/>
<path d="M123.29 3.37999C124.223 3.37999 124.98 2.62335 124.98 1.68999C124.98 0.756626 124.223 0 123.29 0C122.357 0 121.6 0.756626 121.6 1.68999C121.6 2.62335 122.357 3.37999 123.29 3.37999Z" fill="#c084fc"/>
<path d="M138.49 3.37999C139.423 3.37999 140.18 2.62335 140.18 1.68999C140.18 0.756626 139.423 0 138.49 0C137.556 0 136.8 0.756626 136.8 1.68999C136.8 2.62335 137.556 3.37999 138.49 3.37999Z" fill="#c084fc"/>
<path d="M153.69 3.37999C154.623 3.37999 155.38 2.62335 155.38 1.68999C155.38 0.756626 154.623 0 153.69 0C152.757 0 152 0.756626 152 1.68999C152 2.62335 152.757 3.37999 153.69 3.37999Z" fill="#c084fc"/>
<path d="M1.69 16.89C2.62336 16.89 3.38 16.1334 3.38 15.2C3.38 14.2667 2.62336 13.51 1.69 13.51C0.756637 13.51 0 14.2667 0 15.2C0 16.1334 0.756637 16.89 1.69 16.89Z" fill="#c084fc"/>
<path d="M16.8902 16.89C17.8236 16.89 18.5802 16.1334 18.5802 15.2C18.5802 14.2667 17.8236 13.51 16.8902 13.51C15.9568 13.51 15.2002 14.2667 15.2002 15.2C15.2002 16.1334 15.9568 16.89 16.8902 16.89Z" fill="#c084fc"/>
<path d="M32.0899 16.89C33.0233 16.89 33.7799 16.1334 33.7799 15.2C33.7799 14.2667 33.0233 13.51 32.0899 13.51C31.1565 13.51 30.3999 14.2667 30.3999 15.2C30.3999 16.1334 31.1565 16.89 32.0899 16.89Z" fill="#c084fc"/>
<path d="M48.9801 15.2C48.9801 16.13 48.2201 16.89 47.2901 16.89C46.3601 16.89 45.6001 16.13 45.6001 15.2C45.6001 14.27 46.3601 13.51 47.2901 13.51C48.2201 13.51 48.9801 14.27 48.9801 15.2Z" fill="#c084fc"/>
<path d="M64.1798 15.2C64.1798 16.13 63.4198 16.89 62.4898 16.89C61.5598 16.89 60.7998 16.13 60.7998 15.2C60.7998 14.27 61.5598 13.51 62.4898 13.51C63.4198 13.51 64.1798 14.27 64.1798 15.2Z" fill="#c084fc"/>
<path d="M77.69 16.89C78.6234 16.89 79.38 16.1334 79.38 15.2C79.38 14.2667 78.6234 13.51 77.69 13.51C76.7566 13.51 76 14.2667 76 15.2C76 16.1334 76.7566 16.89 77.69 16.89Z" fill="#c084fc"/>
<path d="M92.8902 16.89C93.8236 16.89 94.5802 16.1334 94.5802 15.2C94.5802 14.2667 93.8236 13.51 92.8902 13.51C91.9568 13.51 91.2002 14.2667 91.2002 15.2C91.2002 16.1334 91.9568 16.89 92.8902 16.89Z" fill="#c084fc"/>
<path d="M108.09 16.89C109.023 16.89 109.78 16.1334 109.78 15.2C109.78 14.2667 109.023 13.51 108.09 13.51C107.157 13.51 106.4 14.2667 106.4 15.2C106.4 16.1334 107.157 16.89 108.09 16.89Z" fill="#c084fc"/>
<path d="M123.29 16.89C124.223 16.89 124.98 16.1334 124.98 15.2C124.98 14.2667 124.223 13.51 123.29 13.51C122.357 13.51 121.6 14.2667 121.6 15.2C121.6 16.1334 122.357 16.89 123.29 16.89Z" fill="#c084fc"/>
<path d="M138.49 16.89C139.423 16.89 140.18 16.1334 140.18 15.2C140.18 14.2667 139.423 13.51 138.49 13.51C137.556 13.51 136.8 14.2667 136.8 15.2C136.8 16.1334 137.556 16.89 138.49 16.89Z" fill="#c084fc"/>
<path d="M153.69 16.89C154.623 16.89 155.38 16.1334 155.38 15.2C155.38 14.2667 154.623 13.51 153.69 13.51C152.757 13.51 152 14.2667 152 15.2C152 16.1334 152.757 16.89 153.69 16.89Z" fill="#c084fc"/>
<path d="M1.69 30.4C2.62336 30.4 3.38 29.6434 3.38 28.71C3.38 27.7767 2.62336 27.02 1.69 27.02C0.756637 27.02 0 27.7767 0 28.71C0 29.6434 0.756637 30.4 1.69 30.4Z" fill="#c084fc"/>
<path d="M16.8902 30.4C17.8236 30.4 18.5802 29.6434 18.5802 28.71C18.5802 27.7767 17.8236 27.02 16.8902 27.02C15.9568 27.02 15.2002 27.7767 15.2002 28.71C15.2002 29.6434 15.9568 30.4 16.8902 30.4Z" fill="#c084fc"/>
<path d="M32.0899 30.4C33.0233 30.4 33.7799 29.6434 33.7799 28.71C33.7799 27.7767 33.0233 27.02 32.0899 27.02C31.1565 27.02 30.3999 27.7767 30.3999 28.71C30.3999 29.6434 31.1565 30.4 32.0899 30.4Z" fill="#c084fc"/>
<path d="M48.9801 28.71C48.9801 29.64 48.2201 30.4 47.2901 30.4C46.3601 30.4 45.6001 29.64 45.6001 28.71C45.6001 27.78 46.3601 27.02 47.2901 27.02C48.2201 27.02 48.9801 27.78 48.9801 28.71Z" fill="#c084fc"/>
<path d="M64.1798 28.71C64.1798 29.64 63.4198 30.4 62.4898 30.4C61.5598 30.4 60.7998 29.64 60.7998 28.71C60.7998 27.78 61.5598 27.02 62.4898 27.02C63.4198 27.02 64.1798 27.78 64.1798 28.71Z" fill="#c084fc"/>
<path d="M77.69 30.4C78.6234 30.4 79.38 29.6434 79.38 28.71C79.38 27.7767 78.6234 27.02 77.69 27.02C76.7566 27.02 76 27.7767 76 28.71C76 29.6434 76.7566 30.4 77.69 30.4Z" fill="#c084fc"/>
<path d="M92.8902 30.4C93.8236 30.4 94.5802 29.6434 94.5802 28.71C94.5802 27.7767 93.8236 27.02 92.8902 27.02C91.9568 27.02 91.2002 27.7767 91.2002 28.71C91.2002 29.6434 91.9568 30.4 92.8902 30.4Z" fill="#c084fc"/>
<path d="M108.09 30.4C109.023 30.4 109.78 29.6434 109.78 28.71C109.78 27.7767 109.023 27.02 108.09 27.02C107.157 27.02 106.4 27.7767 106.4 28.71C106.4 29.6434 107.157 30.4 108.09 30.4Z" fill="#c084fc"/>
<path d="M123.29 30.4C124.223 30.4 124.98 29.6434 124.98 28.71C124.98 27.7767 124.223 27.02 123.29 27.02C122.357 27.02 121.6 27.7767 121.6 28.71C121.6 29.6434 122.357 30.4 123.29 30.4Z" fill="#c084fc"/>
<path d="M138.49 30.4C139.423 30.4 140.18 29.6434 140.18 28.71C140.18 27.7767 139.423 27.02 138.49 27.02C137.556 27.02 136.8 27.7767 136.8 28.71C136.8 29.6434 137.556 30.4 138.49 30.4Z" fill="#c084fc"/>
<path d="M153.69 30.4C154.623 30.4 155.38 29.6434 155.38 28.71C155.38 27.7767 154.623 27.02 153.69 27.02C152.757 27.02 152 27.7767 152 28.71C152 29.6434 152.757 30.4 153.69 30.4Z" fill="#c084fc"/>
<path d="M3.38 42.22C3.38 43.15 2.62 43.91 1.69 43.91C0.759999 43.91 0 43.15 0 42.22C0 41.29 0.759999 40.53 1.69 40.53C2.62 40.53 3.38 41.29 3.38 42.22Z" fill="#c084fc"/>
<path d="M18.5802 42.22C18.5802 43.15 17.8202 43.91 16.8902 43.91C15.9602 43.91 15.2002 43.15 15.2002 42.22C15.2002 41.29 15.9602 40.53 16.8902 40.53C17.8202 40.53 18.5802 41.29 18.5802 42.22Z" fill="#c084fc"/>
<path d="M33.7799 42.22C33.7799 43.15 33.0199 43.91 32.0899 43.91C31.1599 43.91 30.3999 43.15 30.3999 42.22C30.3999 41.29 31.1599 40.53 32.0899 40.53C33.0199 40.53 33.7799 41.29 33.7799 42.22Z" fill="#c084fc"/>
<path d="M48.9801 42.22C48.9801 43.15 48.2201 43.91 47.2901 43.91C46.3601 43.91 45.6001 43.15 45.6001 42.22C45.6001 41.29 46.3601 40.53 47.2901 40.53C48.2201 40.53 48.9801 41.29 48.9801 42.22Z" fill="#c084fc"/>
<path d="M64.1798 42.22C64.1798 43.15 63.4198 43.91 62.4898 43.91C61.5598 43.91 60.7998 43.15 60.7998 42.22C60.7998 41.29 61.5598 40.53 62.4898 40.53C63.4198 40.53 64.1798 41.29 64.1798 42.22Z" fill="#c084fc"/>
<path d="M79.38 42.22C79.38 43.15 78.62 43.91 77.69 43.91C76.76 43.91 76 43.15 76 42.22C76 41.29 76.76 40.53 77.69 40.53C78.62 40.53 79.38 41.29 79.38 42.22Z" fill="#c084fc"/>
<path d="M94.5802 42.22C94.5802 43.15 93.8202 43.91 92.8902 43.91C91.9602 43.91 91.2002 43.15 91.2002 42.22C91.2002 41.29 91.9602 40.53 92.8902 40.53C93.8202 40.53 94.5802 41.29 94.5802 42.22Z" fill="#c084fc"/>
<path d="M109.78 42.22C109.78 43.15 109.02 43.91 108.09 43.91C107.16 43.91 106.4 43.15 106.4 42.22C106.4 41.29 107.16 40.53 108.09 40.53C109.02 40.53 109.78 41.29 109.78 42.22Z" fill="#c084fc"/>
<path d="M124.98 42.22C124.98 43.15 124.22 43.91 123.29 43.91C122.36 43.91 121.6 43.15 121.6 42.22C121.6 41.29 122.36 40.53 123.29 40.53C124.22 40.53 124.98 41.29 124.98 42.22Z" fill="#c084fc"/>
<path d="M140.18 42.22C140.18 43.15 139.42 43.91 138.49 43.91C137.56 43.91 136.8 43.15 136.8 42.22C136.8 41.29 137.56 40.53 138.49 40.53C139.42 40.53 140.18 41.29 140.18 42.22Z" fill="#c084fc"/>
<path d="M155.38 42.22C155.38 43.15 154.62 43.91 153.69 43.91C152.76 43.91 152 43.15 152 42.22C152 41.29 152.76 40.53 153.69 40.53C154.62 40.53 155.38 41.29 155.38 42.22Z" fill="#c084fc"/>
<path d="M3.38 55.73C3.38 56.66 2.62 57.42 1.69 57.42C0.759999 57.42 0 56.66 0 55.73C0 54.8 0.759999 54.04 1.69 54.04C2.62 54.04 3.38 54.8 3.38 55.73Z" fill="#c084fc"/>
<path d="M18.5802 55.73C18.5802 56.66 17.8202 57.42 16.8902 57.42C15.9602 57.42 15.2002 56.66 15.2002 55.73C15.2002 54.8 15.9602 54.04 16.8902 54.04C17.8202 54.04 18.5802 54.8 18.5802 55.73Z" fill="#c084fc"/>
<path d="M33.7799 55.73C33.7799 56.66 33.0199 57.42 32.0899 57.42C31.1599 57.42 30.3999 56.66 30.3999 55.73C30.3999 54.8 31.1599 54.04 32.0899 54.04C33.0199 54.04 33.7799 54.8 33.7799 55.73Z" fill="#c084fc"/>
<path d="M48.9801 55.73C48.9801 56.66 48.2201 57.42 47.2901 57.42C46.3601 57.42 45.6001 56.66 45.6001 55.73C45.6001 54.8 46.3601 54.04 47.2901 54.04C48.2201 54.04 48.9801 54.8 48.9801 55.73Z" fill="#c084fc"/>
<path d="M64.1798 55.73C64.1798 56.66 63.4198 57.42 62.4898 57.42C61.5598 57.42 60.7998 56.66 60.7998 55.73C60.7998 54.8 61.5598 54.04 62.4898 54.04C63.4198 54.04 64.1798 54.8 64.1798 55.73Z" fill="#c084fc"/>
<path d="M79.38 55.73C79.38 56.66 78.62 57.42 77.69 57.42C76.76 57.42 76 56.66 76 55.73C76 54.8 76.76 54.04 77.69 54.04C78.62 54.04 79.38 54.8 79.38 55.73Z" fill="#c084fc"/>
<path d="M94.5802 55.73C94.5802 56.66 93.8202 57.42 92.8902 57.42C91.9602 57.42 91.2002 56.66 91.2002 55.73C91.2002 54.8 91.9602 54.04 92.8902 54.04C93.8202 54.04 94.5802 54.8 94.5802 55.73Z" fill="#c084fc"/>
<path d="M109.78 55.73C109.78 56.66 109.02 57.42 108.09 57.42C107.16 57.42 106.4 56.66 106.4 55.73C106.4 54.8 107.16 54.04 108.09 54.04C109.02 54.04 109.78 54.8 109.78 55.73Z" fill="#c084fc"/>
<path d="M124.98 55.73C124.98 56.66 124.22 57.42 123.29 57.42C122.36 57.42 121.6 56.66 121.6 55.73C121.6 54.8 122.36 54.04 123.29 54.04C124.22 54.04 124.98 54.8 124.98 55.73Z" fill="#c084fc"/>
<path d="M140.18 55.73C140.18 56.66 139.42 57.42 138.49 57.42C137.56 57.42 136.8 56.66 136.8 55.73C136.8 54.8 137.56 54.04 138.49 54.04C139.42 54.04 140.18 54.8 140.18 55.73Z" fill="#c084fc"/>
<path d="M155.38 55.73C155.38 56.66 154.62 57.42 153.69 57.42C152.76 57.42 152 56.66 152 55.73C152 54.8 152.76 54.04 153.69 54.04C154.62 54.04 155.38 54.8 155.38 55.73Z" fill="#c084fc"/>
<path d="M3.38 69.2401C3.38 70.1701 2.62 70.9301 1.69 70.9301C0.759999 70.9301 0 70.1701 0 69.2401C0 68.3101 0.759999 67.55 1.69 67.55C2.62 67.55 3.38 68.3101 3.38 69.2401Z" fill="#c084fc"/>
<path d="M18.5802 69.2401C18.5802 70.1701 17.8202 70.9301 16.8902 70.9301C15.9602 70.9301 15.2002 70.1701 15.2002 69.2401C15.2002 68.3101 15.9602 67.55 16.8902 67.55C17.8202 67.55 18.5802 68.3101 18.5802 69.2401Z" fill="#c084fc"/>
<path d="M33.7799 69.2401C33.7799 70.1701 33.0199 70.9301 32.0899 70.9301C31.1599 70.9301 30.3999 70.1701 30.3999 69.2401C30.3999 68.3101 31.1599 67.55 32.0899 67.55C33.0199 67.55 33.7799 68.3101 33.7799 69.2401Z" fill="#c084fc"/>
<path d="M48.9801 69.2401C48.9801 70.1701 48.2201 70.9301 47.2901 70.9301C46.3601 70.9301 45.6001 70.1701 45.6001 69.2401C45.6001 68.3101 46.3601 67.55 47.2901 67.55C48.2201 67.55 48.9801 68.3101 48.9801 69.2401Z" fill="#c084fc"/>
<path d="M64.1798 69.2401C64.1798 70.1701 63.4198 70.9301 62.4898 70.9301C61.5598 70.9301 60.7998 70.1701 60.7998 69.2401C60.7998 68.3101 61.5598 67.55 62.4898 67.55C63.4198 67.55 64.1798 68.3101 64.1798 69.2401Z" fill="#c084fc"/>
<path d="M79.38 69.2401C79.38 70.1701 78.62 70.9301 77.69 70.9301C76.76 70.9301 76 70.1701 76 69.2401C76 68.3101 76.76 67.55 77.69 67.55C78.62 67.55 79.38 68.3101 79.38 69.2401Z" fill="#c084fc"/>
<path d="M94.5802 69.2401C94.5802 70.1701 93.8202 70.9301 92.8902 70.9301C91.9602 70.9301 91.2002 70.1701 91.2002 69.2401C91.2002 68.3101 91.9602 67.55 92.8902 67.55C93.8202 67.55 94.5802 68.3101 94.5802 69.2401Z" fill="#c084fc"/>
<path d="M109.78 69.2401C109.78 70.1701 109.02 70.9301 108.09 70.9301C107.16 70.9301 106.4 70.1701 106.4 69.2401C106.4 68.3101 107.16 67.55 108.09 67.55C109.02 67.55 109.78 68.3101 109.78 69.2401Z" fill="#c084fc"/>
<path d="M124.98 69.2401C124.98 70.1701 124.22 70.9301 123.29 70.9301C122.36 70.9301 121.6 70.1701 121.6 69.2401C121.6 68.3101 122.36 67.55 123.29 67.55C124.22 67.55 124.98 68.3101 124.98 69.2401Z" fill="#c084fc"/>
<path d="M140.18 69.2401C140.18 70.1701 139.42 70.9301 138.49 70.9301C137.56 70.9301 136.8 70.1701 136.8 69.2401C136.8 68.3101 137.56 67.55 138.49 67.55C139.42 67.55 140.18 68.3101 140.18 69.2401Z" fill="#c084fc"/>
<path d="M155.38 69.2401C155.38 70.1701 154.62 70.9301 153.69 70.9301C152.76 70.9301 152 70.1701 152 69.2401C152 68.3101 152.76 67.55 153.69 67.55C154.62 67.55 155.38 68.3101 155.38 69.2401Z" fill="#c084fc"/>
<path d="M1.69 84.4399C2.62336 84.4399 3.38 83.6833 3.38 82.7499C3.38 81.8166 2.62336 81.0599 1.69 81.0599C0.756637 81.0599 0 81.8166 0 82.7499C0 83.6833 0.756637 84.4399 1.69 84.4399Z" fill="#c084fc"/>
<path d="M16.8902 84.4399C17.8236 84.4399 18.5802 83.6833 18.5802 82.7499C18.5802 81.8166 17.8236 81.0599 16.8902 81.0599C15.9568 81.0599 15.2002 81.8166 15.2002 82.7499C15.2002 83.6833 15.9568 84.4399 16.8902 84.4399Z" fill="#c084fc"/>
<path d="M32.0899 84.4399C33.0233 84.4399 33.7799 83.6833 33.7799 82.7499C33.7799 81.8166 33.0233 81.0599 32.0899 81.0599C31.1565 81.0599 30.3999 81.8166 30.3999 82.7499C30.3999 83.6833 31.1565 84.4399 32.0899 84.4399Z" fill="#c084fc"/>
<path d="M48.9801 82.7499C48.9801 83.6799 48.2201 84.4399 47.2901 84.4399C46.3601 84.4399 45.6001 83.6799 45.6001 82.7499C45.6001 81.8199 46.3601 81.0599 47.2901 81.0599C48.2201 81.0699 48.9801 81.8199 48.9801 82.7499Z" fill="#c084fc"/>
<path d="M64.1798 82.7499C64.1798 83.6799 63.4198 84.4399 62.4898 84.4399C61.5598 84.4399 60.7998 83.6799 60.7998 82.7499C60.7998 81.8199 61.5598 81.0599 62.4898 81.0599C63.4198 81.0699 64.1798 81.8199 64.1798 82.7499Z" fill="#c084fc"/>
<path d="M77.69 84.4399C78.6234 84.4399 79.38 83.6833 79.38 82.7499C79.38 81.8166 78.6234 81.0599 77.69 81.0599C76.7566 81.0599 76 81.8166 76 82.7499C76 83.6833 76.7566 84.4399 77.69 84.4399Z" fill="#c084fc"/>
<path d="M92.8902 84.4399C93.8236 84.4399 94.5802 83.6833 94.5802 82.7499C94.5802 81.8166 93.8236 81.0599 92.8902 81.0599C91.9568 81.0599 91.2002 81.8166 91.2002 82.7499C91.2002 83.6833 91.9568 84.4399 92.8902 84.4399Z" fill="#c084fc"/>
<path d="M108.09 84.4399C109.023 84.4399 109.78 83.6833 109.78 82.7499C109.78 81.8166 109.023 81.0599 108.09 81.0599C107.157 81.0599 106.4 81.8166 106.4 82.7499C106.4 83.6833 107.157 84.4399 108.09 84.4399Z" fill="#c084fc"/>
<path d="M123.29 84.4399C124.223 84.4399 124.98 83.6833 124.98 82.7499C124.98 81.8166 124.223 81.0599 123.29 81.0599C122.357 81.0599 121.6 81.8166 121.6 82.7499C121.6 83.6833 122.357 84.4399 123.29 84.4399Z" fill="#c084fc"/>
<path d="M138.49 84.4399C139.423 84.4399 140.18 83.6833 140.18 82.7499C140.18 81.8166 139.423 81.0599 138.49 81.0599C137.556 81.0599 136.8 81.8166 136.8 82.7499C136.8 83.6833 137.556 84.4399 138.49 84.4399Z" fill="#c084fc"/>
<path d="M153.69 84.4399C154.623 84.4399 155.38 83.6833 155.38 82.7499C155.38 81.8166 154.623 81.0599 153.69 81.0599C152.757 81.0599 152 81.8166 152 82.7499C152 83.6833 152.757 84.4399 153.69 84.4399Z" fill="#c084fc"/>
<path d="M3.38 96.27C3.38 97.2 2.62 97.96 1.69 97.96C0.759999 97.96 0 97.2 0 96.27C0 95.34 0.759999 94.58 1.69 94.58C2.62 94.58 3.38 95.33 3.38 96.27Z" fill="#c084fc"/>
<path d="M18.5802 96.27C18.5802 97.2 17.8202 97.96 16.8902 97.96C15.9602 97.96 15.2002 97.2 15.2002 96.27C15.2002 95.34 15.9602 94.58 16.8902 94.58C17.8202 94.58 18.5802 95.33 18.5802 96.27Z" fill="#c084fc"/>
<path d="M33.7799 96.27C33.7799 97.2 33.0199 97.96 32.0899 97.96C31.1599 97.96 30.3999 97.2 30.3999 96.27C30.3999 95.34 31.1599 94.58 32.0899 94.58C33.0199 94.58 33.7799 95.33 33.7799 96.27Z" fill="#c084fc"/>
<path d="M48.9801 96.27C48.9801 97.2 48.2201 97.96 47.2901 97.96C46.3601 97.96 45.6001 97.2 45.6001 96.27C45.6001 95.34 46.3601 94.58 47.2901 94.58C48.2201 94.58 48.9801 95.33 48.9801 96.27Z" fill="#c084fc"/>
<path d="M64.1798 96.27C64.1798 97.2 63.4198 97.96 62.4898 97.96C61.5598 97.96 60.7998 97.2 60.7998 96.27C60.7998 95.34 61.5598 94.58 62.4898 94.58C63.4198 94.58 64.1798 95.33 64.1798 96.27Z" fill="#c084fc"/>
<path d="M79.38 96.27C79.38 97.2 78.62 97.96 77.69 97.96C76.76 97.96 76 97.2 76 96.27C76 95.34 76.76 94.58 77.69 94.58C78.62 94.58 79.38 95.33 79.38 96.27Z" fill="#c084fc"/>
<path d="M94.5802 96.27C94.5802 97.2 93.8202 97.96 92.8902 97.96C91.9602 97.96 91.2002 97.2 91.2002 96.27C91.2002 95.34 91.9602 94.58 92.8902 94.58C93.8202 94.58 94.5802 95.33 94.5802 96.27Z" fill="#c084fc"/>
<path d="M109.78 96.27C109.78 97.2 109.02 97.96 108.09 97.96C107.16 97.96 106.4 97.2 106.4 96.27C106.4 95.34 107.16 94.58 108.09 94.58C109.02 94.58 109.78 95.33 109.78 96.27Z" fill="#c084fc"/>
<path d="M124.98 96.27C124.98 97.2 124.22 97.96 123.29 97.96C122.36 97.96 121.6 97.2 121.6 96.27C121.6 95.34 122.36 94.58 123.29 94.58C124.22 94.58 124.98 95.33 124.98 96.27Z" fill="#c084fc"/>
<path d="M140.18 96.27C140.18 97.2 139.42 97.96 138.49 97.96C137.56 97.96 136.8 97.2 136.8 96.27C136.8 95.34 137.56 94.58 138.49 94.58C139.42 94.58 140.18 95.33 140.18 96.27Z" fill="#c084fc"/>
<path d="M155.38 96.27C155.38 97.2 154.62 97.96 153.69 97.96C152.76 97.96 152 97.2 152 96.27C152 95.34 152.76 94.58 153.69 94.58C154.62 94.58 155.38 95.33 155.38 96.27Z" fill="#c084fc"/>
<path d="M3.38 109.78C3.38 110.71 2.62 111.47 1.69 111.47C0.759999 111.47 0 110.71 0 109.78C0 108.85 0.759999 108.09 1.69 108.09C2.62 108.09 3.38 108.84 3.38 109.78Z" fill="#c084fc"/>
<path d="M18.5802 109.78C18.5802 110.71 17.8202 111.47 16.8902 111.47C15.9602 111.47 15.2002 110.71 15.2002 109.78C15.2002 108.85 15.9602 108.09 16.8902 108.09C17.8202 108.09 18.5802 108.84 18.5802 109.78Z" fill="#c084fc"/>
<path d="M33.7799 109.78C33.7799 110.71 33.0199 111.47 32.0899 111.47C31.1599 111.47 30.3999 110.71 30.3999 109.78C30.3999 108.85 31.1599 108.09 32.0899 108.09C33.0199 108.09 33.7799 108.84 33.7799 109.78Z" fill="#c084fc"/>
<path d="M48.9801 109.78C48.9801 110.71 48.2201 111.47 47.2901 111.47C46.3601 111.47 45.6001 110.71 45.6001 109.78C45.6001 108.85 46.3601 108.09 47.2901 108.09C48.2201 108.09 48.9801 108.84 48.9801 109.78Z" fill="#c084fc"/>
<path d="M64.1798 109.78C64.1798 110.71 63.4198 111.47 62.4898 111.47C61.5598 111.47 60.7998 110.71 60.7998 109.78C60.7998 108.85 61.5598 108.09 62.4898 108.09C63.4198 108.09 64.1798 108.84 64.1798 109.78Z" fill="#c084fc"/>
<path d="M79.38 109.78C79.38 110.71 78.62 111.47 77.69 111.47C76.76 111.47 76 110.71 76 109.78C76 108.85 76.76 108.09 77.69 108.09C78.62 108.09 79.38 108.84 79.38 109.78Z" fill="#c084fc"/>
<path d="M94.5802 109.78C94.5802 110.71 93.8202 111.47 92.8902 111.47C91.9602 111.47 91.2002 110.71 91.2002 109.78C91.2002 108.85 91.9602 108.09 92.8902 108.09C93.8202 108.09 94.5802 108.84 94.5802 109.78Z" fill="#c084fc"/>
<path d="M109.78 109.78C109.78 110.71 109.02 111.47 108.09 111.47C107.16 111.47 106.4 110.71 106.4 109.78C106.4 108.85 107.16 108.09 108.09 108.09C109.02 108.09 109.78 108.84 109.78 109.78Z" fill="#c084fc"/>
<path d="M124.98 109.78C124.98 110.71 124.22 111.47 123.29 111.47C122.36 111.47 121.6 110.71 121.6 109.78C121.6 108.85 122.36 108.09 123.29 108.09C124.22 108.09 124.98 108.84 124.98 109.78Z" fill="#c084fc"/>
<path d="M140.18 109.78C140.18 110.71 139.42 111.47 138.49 111.47C137.56 111.47 136.8 110.71 136.8 109.78C136.8 108.85 137.56 108.09 138.49 108.09C139.42 108.09 140.18 108.84 140.18 109.78Z" fill="#c084fc"/>
<path d="M155.38 109.78C155.38 110.71 154.62 111.47 153.69 111.47C152.76 111.47 152 110.71 152 109.78C152 108.85 152.76 108.09 153.69 108.09C154.62 108.09 155.38 108.84 155.38 109.78Z" fill="#c084fc"/>
<path d="M3.38 123.29C3.38 124.22 2.62 124.98 1.69 124.98C0.759999 124.98 0 124.22 0 123.29C0 122.36 0.759999 121.6 1.69 121.6C2.62 121.6 3.38 122.36 3.38 123.29Z" fill="#c084fc"/>
<path d="M18.5802 123.29C18.5802 124.22 17.8202 124.98 16.8902 124.98C15.9602 124.98 15.2002 124.22 15.2002 123.29C15.2002 122.36 15.9602 121.6 16.8902 121.6C17.8202 121.6 18.5802 122.36 18.5802 123.29Z" fill="#c084fc"/>
<path d="M33.7799 123.29C33.7799 124.22 33.0199 124.98 32.0899 124.98C31.1599 124.98 30.3999 124.22 30.3999 123.29C30.3999 122.36 31.1599 121.6 32.0899 121.6C33.0199 121.6 33.7799 122.36 33.7799 123.29Z" fill="#c084fc"/>
<path d="M48.9801 123.29C48.9801 124.22 48.2201 124.98 47.2901 124.98C46.3601 124.98 45.6001 124.22 45.6001 123.29C45.6001 122.36 46.3601 121.6 47.2901 121.6C48.2201 121.6 48.9801 122.36 48.9801 123.29Z" fill="#c084fc"/>
<path d="M64.1798 123.29C64.1798 124.22 63.4198 124.98 62.4898 124.98C61.5598 124.98 60.7998 124.22 60.7998 123.29C60.7998 122.36 61.5598 121.6 62.4898 121.6C63.4198 121.6 64.1798 122.36 64.1798 123.29Z" fill="#c084fc"/>
<path d="M79.38 123.29C79.38 124.22 78.62 124.98 77.69 124.98C76.76 124.98 76 124.22 76 123.29C76 122.36 76.76 121.6 77.69 121.6C78.62 121.6 79.38 122.36 79.38 123.29Z" fill="#c084fc"/>
<path d="M94.5802 123.29C94.5802 124.22 93.8202 124.98 92.8902 124.98C91.9602 124.98 91.2002 124.22 91.2002 123.29C91.2002 122.36 91.9602 121.6 92.8902 121.6C93.8202 121.6 94.5802 122.36 94.5802 123.29Z" fill="#c084fc"/>
<path d="M109.78 123.29C109.78 124.22 109.02 124.98 108.09 124.98C107.16 124.98 106.4 124.22 106.4 123.29C106.4 122.36 107.16 121.6 108.09 121.6C109.02 121.6 109.78 122.36 109.78 123.29Z" fill="#c084fc"/>
<path d="M124.98 123.29C124.98 124.22 124.22 124.98 123.29 124.98C122.36 124.98 121.6 124.22 121.6 123.29C121.6 122.36 122.36 121.6 123.29 121.6C124.22 121.6 124.98 122.36 124.98 123.29Z" fill="#c084fc"/>
<path d="M140.18 123.29C140.18 124.22 139.42 124.98 138.49 124.98C137.56 124.98 136.8 124.22 136.8 123.29C136.8 122.36 137.56 121.6 138.49 121.6C139.42 121.6 140.18 122.36 140.18 123.29Z" fill="#c084fc"/>
<path d="M155.38 123.29C155.38 124.22 154.62 124.98 153.69 124.98C152.76 124.98 152 124.22 152 123.29C152 122.36 152.76 121.6 153.69 121.6C154.62 121.6 155.38 122.36 155.38 123.29Z" fill="#c084fc"/>
<path d="M1.69 138.49C2.62336 138.49 3.38 137.733 3.38 136.8C3.38 135.867 2.62336 135.11 1.69 135.11C0.756637 135.11 0 135.867 0 136.8C0 137.733 0.756637 138.49 1.69 138.49Z" fill="#c084fc"/>
<path d="M16.8902 138.49C17.8236 138.49 18.5802 137.733 18.5802 136.8C18.5802 135.867 17.8236 135.11 16.8902 135.11C15.9568 135.11 15.2002 135.867 15.2002 136.8C15.2002 137.733 15.9568 138.49 16.8902 138.49Z" fill="#c084fc"/>
<path d="M32.0899 138.49C33.0233 138.49 33.7799 137.733 33.7799 136.8C33.7799 135.867 33.0233 135.11 32.0899 135.11C31.1565 135.11 30.3999 135.867 30.3999 136.8C30.3999 137.733 31.1565 138.49 32.0899 138.49Z" fill="#c084fc"/>
<path d="M48.9801 136.8C48.9801 137.73 48.2201 138.49 47.2901 138.49C46.3601 138.49 45.6001 137.73 45.6001 136.8C45.6001 135.87 46.3601 135.11 47.2901 135.11C48.2201 135.11 48.9801 135.87 48.9801 136.8Z" fill="#c084fc"/>
<path d="M64.1798 136.8C64.1798 137.73 63.4198 138.49 62.4898 138.49C61.5598 138.49 60.7998 137.73 60.7998 136.8C60.7998 135.87 61.5598 135.11 62.4898 135.11C63.4198 135.11 64.1798 135.87 64.1798 136.8Z" fill="#c084fc"/>
<path d="M77.69 138.49C78.6234 138.49 79.38 137.733 79.38 136.8C79.38 135.867 78.6234 135.11 77.69 135.11C76.7566 135.11 76 135.867 76 136.8C76 137.733 76.7566 138.49 77.69 138.49Z" fill="#c084fc"/>
<path d="M92.8902 138.49C93.8236 138.49 94.5802 137.733 94.5802 136.8C94.5802 135.867 93.8236 135.11 92.8902 135.11C91.9568 135.11 91.2002 135.867 91.2002 136.8C91.2002 137.733 91.9568 138.49 92.8902 138.49Z" fill="#c084fc"/>
<path d="M108.09 138.49C109.023 138.49 109.78 137.733 109.78 136.8C109.78 135.867 109.023 135.11 108.09 135.11C107.157 135.11 106.4 135.867 106.4 136.8C106.4 137.733 107.157 138.49 108.09 138.49Z" fill="#c084fc"/>
<path d="M123.29 138.49C124.223 138.49 124.98 137.733 124.98 136.8C124.98 135.867 124.223 135.11 123.29 135.11C122.357 135.11 121.6 135.867 121.6 136.8C121.6 137.733 122.357 138.49 123.29 138.49Z" fill="#c084fc"/>
<path d="M138.49 138.49C139.423 138.49 140.18 137.733 140.18 136.8C140.18 135.867 139.423 135.11 138.49 135.11C137.556 135.11 136.8 135.867 136.8 136.8C136.8 137.733 137.556 138.49 138.49 138.49Z" fill="#c084fc"/>
<path d="M153.69 138.49C154.623 138.49 155.38 137.733 155.38 136.8C155.38 135.867 154.623 135.11 153.69 135.11C152.757 135.11 152 135.867 152 136.8C152 137.733 152.757 138.49 153.69 138.49Z" fill="#c084fc"/>
<path d="M3.38 150.31C3.38 151.24 2.62 152 1.69 152C0.759999 152 0 151.24 0 150.31C0 149.38 0.759999 148.62 1.69 148.62C2.62 148.62 3.38 149.38 3.38 150.31Z" fill="#c084fc"/>
<path d="M18.5802 150.31C18.5802 151.24 17.8202 152 16.8902 152C15.9602 152 15.2002 151.24 15.2002 150.31C15.2002 149.38 15.9602 148.62 16.8902 148.62C17.8202 148.62 18.5802 149.38 18.5802 150.31Z" fill="#c084fc"/>
<path d="M33.7799 150.31C33.7799 151.24 33.0199 152 32.0899 152C31.1599 152 30.3999 151.24 30.3999 150.31C30.3999 149.38 31.1599 148.62 32.0899 148.62C33.0199 148.62 33.7799 149.38 33.7799 150.31Z" fill="#c084fc"/>
<path d="M48.9801 150.31C48.9801 151.24 48.2201 152 47.2901 152C46.3601 152 45.6001 151.24 45.6001 150.31C45.6001 149.38 46.3601 148.62 47.2901 148.62C48.2201 148.62 48.9801 149.38 48.9801 150.31Z" fill="#c084fc"/>
<path d="M64.1798 150.31C64.1798 151.24 63.4198 152 62.4898 152C61.5598 152 60.7998 151.24 60.7998 150.31C60.7998 149.38 61.5598 148.62 62.4898 148.62C63.4198 148.62 64.1798 149.38 64.1798 150.31Z" fill="#c084fc"/>
<path d="M79.38 150.31C79.38 151.24 78.62 152 77.69 152C76.76 152 76 151.24 76 150.31C76 149.38 76.76 148.62 77.69 148.62C78.62 148.62 79.38 149.38 79.38 150.31Z" fill="#c084fc"/>
<path d="M94.5802 150.31C94.5802 151.24 93.8202 152 92.8902 152C91.9602 152 91.2002 151.24 91.2002 150.31C91.2002 149.38 91.9602 148.62 92.8902 148.62C93.8202 148.62 94.5802 149.38 94.5802 150.31Z" fill="#c084fc"/>
<path d="M109.78 150.31C109.78 151.24 109.02 152 108.09 152C107.16 152 106.4 151.24 106.4 150.31C106.4 149.38 107.16 148.62 108.09 148.62C109.02 148.62 109.78 149.38 109.78 150.31Z" fill="#c084fc"/>
<path d="M124.98 150.31C124.98 151.24 124.22 152 123.29 152C122.36 152 121.6 151.24 121.6 150.31C121.6 149.38 122.36 148.62 123.29 148.62C124.22 148.62 124.98 149.38 124.98 150.31Z" fill="#c084fc"/>
<path d="M140.18 150.31C140.18 151.24 139.42 152 138.49 152C137.56 152 136.8 151.24 136.8 150.31C136.8 149.38 137.56 148.62 138.49 148.62C139.42 148.62 140.18 149.38 140.18 150.31Z" fill="#c084fc"/>
<path d="M155.38 150.31C155.38 151.24 154.62 152 153.69 152C152.76 152 152 151.24 152 150.31C152 149.38 152.76 148.62 153.69 148.62C154.62 148.62 155.38 149.38 155.38 150.31Z" fill="#c084fc"/>
</svg>
